<svg width="82" height="10" viewBox="0 0 82 10" fill="none" xmlns="http://www.w3.org/2000/svg">
<path d="M0.156 9L3.048 0.24H6.228L9.228 9H7.188L4.764 1.596L5.388 1.848H3.84L4.488 1.596L2.124 9H0.156ZM2.352 6.828L2.952 5.196H6.384L6.996 6.828H2.352ZM10.2627 9V2.424H11.7867V5.244H11.6787C11.6787 4.572 11.7627 4.012 11.9307 3.564C12.1067 3.116 12.3707 2.78 12.7227 2.556C13.0747 2.332 13.5027 2.22 14.0067 2.22H14.0907C14.8587 2.22 15.4427 2.472 15.8427 2.976C16.2507 3.472 16.4547 4.228 16.4547 5.244V9H14.5347V5.136C14.5347 4.784 14.4307 4.496 14.2227 4.272C14.0147 4.048 13.7347 3.936 13.3827 3.936C13.0227 3.936 12.7307 4.052 12.5067 4.284C12.2907 4.508 12.1827 4.804 12.1827 5.172V9H10.2627ZM20.5868 9.204C19.6508 9.204 18.9188 9.012 18.3908 8.628C17.8628 8.244 17.5828 7.704 17.5508 7.008H19.2548C19.2868 7.216 19.4108 7.404 19.6268 7.572C19.8508 7.732 20.1828 7.812 20.6228 7.812C20.9588 7.812 21.2348 7.756 21.4508 7.644C21.6748 7.524 21.7868 7.356 21.7868 7.14C21.7868 6.948 21.7028 6.796 21.5348 6.684C21.3668 6.564 21.0668 6.48 20.6348 6.432L20.1188 6.384C19.3268 6.304 18.7308 6.084 18.3308 5.724C17.9388 5.364 17.7428 4.904 17.7428 4.344C17.7428 3.88 17.8588 3.492 18.0908 3.18C18.3228 2.868 18.6428 2.632 19.0508 2.472C19.4668 2.312 19.9388 2.232 20.4668 2.232C21.3148 2.232 21.9988 2.42 22.5188 2.796C23.0388 3.164 23.3108 3.7 23.3348 4.404H21.6308C21.5988 4.188 21.4868 4.008 21.2948 3.864C21.1028 3.712 20.8188 3.636 20.4428 3.636C20.1468 3.636 19.9108 3.692 19.7348 3.804C19.5588 3.916 19.4708 4.068 19.4708 4.26C19.4708 4.444 19.5468 4.584 19.6988 4.68C19.8508 4.776 20.0988 4.844 20.4428 4.884L20.9588 4.932C21.7668 5.02 22.3948 5.244 22.8428 5.604C23.2908 5.964 23.5148 6.448 23.5148 7.056C23.5148 7.496 23.3948 7.88 23.1548 8.208C22.9148 8.528 22.5748 8.776 22.1348 8.952C21.6948 9.12 21.1788 9.204 20.5868 9.204ZM24.7588 9V0.24H26.6788V5.292H26.3908C26.3908 4.628 26.4748 4.068 26.6428 3.612C26.8108 3.156 27.0588 2.812 27.3868 2.58C27.7148 2.34 28.1268 2.22 28.6228 2.22H28.7068C29.4348 2.22 29.9908 2.48 30.3748 3C30.7588 3.512 30.9508 4.264 30.9508 5.256V9H29.0308V5.136C29.0308 4.776 28.9228 4.488 28.7068 4.272C28.4988 4.048 28.2228 3.936 27.8788 3.936C27.5188 3.936 27.2268 4.052 27.0028 4.284C26.7868 4.516 26.6788 4.824 26.6788 5.208V9H24.7588ZM34.8069 9.204C34.0469 9.204 33.4629 8.96 33.0549 8.472C32.6469 7.976 32.4429 7.232 32.4429 6.24V2.424H34.3629V6.336C34.3629 6.688 34.4629 6.968 34.6629 7.176C34.8629 7.384 35.1309 7.488 35.4669 7.488C35.8109 7.488 36.0909 7.38 36.3069 7.164C36.5229 6.948 36.6309 6.656 36.6309 6.288V2.424H38.5509V9H37.0269V6.228H37.1589C37.1589 6.892 37.0709 7.448 36.8949 7.896C36.7269 8.336 36.4749 8.664 36.1389 8.88C35.8029 9.096 35.3869 9.204 34.8909 9.204H34.8069ZM40.4053 9V0.24H42.3373V9H40.4053ZM39.6253 1.656V0.24H42.3373V1.656H39.6253Z" fill="#C10303"/>
<path d="M48.1689 9.048V8.016H50.6169C51.0889 8.016 51.4529 7.884 51.7089 7.62C51.9729 7.348 52.1049 6.988 52.1049 6.54C52.1049 6.084 51.9769 5.728 51.7209 5.472C51.4649 5.208 51.0969 5.076 50.6169 5.076H48.1689V4.308H50.4489C51.0089 4.308 51.5009 4.376 51.9249 4.512C52.3569 4.648 52.6929 4.876 52.9329 5.196C53.1809 5.508 53.3049 5.936 53.3049 6.48V6.648C53.3049 7.16 53.2009 7.596 52.9929 7.956C52.7849 8.308 52.4689 8.58 52.0449 8.772C51.6209 8.956 51.0889 9.048 50.4489 9.048H48.1689ZM47.2329 9.048V0.192H48.4089V9.048H47.2329ZM48.1689 4.86V4.092H50.2929C50.7889 4.092 51.1529 3.96 51.3849 3.696C51.6249 3.424 51.7449 3.08 51.7449 2.664C51.7449 2.24 51.6249 1.896 51.3849 1.632C51.1529 1.36 50.7889 1.224 50.2929 1.224H48.1689V0.192H50.0889C51.0489 0.192 51.7649 0.396 52.2369 0.804C52.7089 1.204 52.9449 1.784 52.9449 2.544V2.712C52.9449 3.248 52.8249 3.676 52.5849 3.996C52.3449 4.308 52.0089 4.532 51.5769 4.668C51.1529 4.796 50.6569 4.86 50.0889 4.86H48.1689ZM55.2212 9V0.24H56.3732V5.472H56.0852C56.0852 4.84 56.1652 4.296 56.3252 3.84C56.4932 3.376 56.7492 3.02 57.0932 2.772C57.4372 2.524 57.8772 2.4 58.4132 2.4H58.4612C59.2292 2.4 59.8092 2.656 60.2012 3.168C60.5932 3.672 60.7892 4.396 60.7892 5.34V9H59.6372V5.1C59.6372 4.58 59.4892 4.176 59.1932 3.888C58.9052 3.6 58.5292 3.456 58.0652 3.456C57.5532 3.456 57.1412 3.628 56.8292 3.972C56.5252 4.308 56.3732 4.752 56.3732 5.304V9H55.2212ZM66.773 9V7.08H66.581V4.86C66.581 4.42 66.465 4.088 66.233 3.864C66.009 3.64 65.677 3.528 65.237 3.528C64.989 3.528 64.733 3.532 64.469 3.54C64.205 3.548 63.953 3.556 63.713 3.564C63.473 3.572 63.265 3.584 63.089 3.6V2.592C63.265 2.576 63.449 2.564 63.641 2.556C63.841 2.54 64.045 2.532 64.253 2.532C64.461 2.524 64.661 2.52 64.853 2.52C65.509 2.52 66.045 2.6 66.461 2.76C66.877 2.912 67.185 3.164 67.385 3.516C67.585 3.868 67.685 4.344 67.685 4.944V9H66.773ZM64.673 9.168C64.193 9.168 63.777 9.088 63.425 8.928C63.081 8.76 62.813 8.52 62.621 8.208C62.437 7.896 62.345 7.52 62.345 7.08C62.345 6.624 62.445 6.244 62.645 5.94C62.853 5.636 63.153 5.408 63.545 5.256C63.937 5.096 64.409 5.016 64.961 5.016H66.701V5.88H64.913C64.449 5.88 64.093 5.992 63.845 6.216C63.597 6.44 63.473 6.728 63.473 7.08C63.473 7.432 63.597 7.716 63.845 7.932C64.093 8.148 64.449 8.256 64.913 8.256C65.185 8.256 65.445 8.208 65.693 8.112C65.941 8.008 66.145 7.84 66.305 7.608C66.473 7.368 66.565 7.04 66.581 6.624L66.893 7.08C66.853 7.536 66.741 7.92 66.557 8.232C66.381 8.536 66.133 8.768 65.813 8.928C65.501 9.088 65.121 9.168 64.673 9.168ZM69.7993 9V2.592H70.7113V5.232H70.6633C70.6633 4.296 70.8673 3.612 71.2753 3.18C71.6913 2.74 72.3113 2.52 73.1353 2.52H73.3513V3.552H72.9433C72.3033 3.552 71.8113 3.724 71.4673 4.068C71.1233 4.404 70.9513 4.892 70.9513 5.532V9H69.7993ZM77.3344 9.072C76.8544 9.072 76.4384 9.004 76.0864 8.868C75.7424 8.732 75.4744 8.5 75.2824 8.172C75.0984 7.836 75.0064 7.384 75.0064 6.816V0.648H76.1104V6.96C76.1104 7.304 76.2024 7.572 76.3864 7.764C76.5784 7.948 76.8464 8.04 77.1904 8.04H78.3184V9.072H77.3344ZM73.9024 3.456V2.592H78.3184V3.456H73.9024ZM80.2598 9V2.592H81.4118V9H80.2598ZM79.2758 3.504V2.592H81.4118V3.504H79.2758ZM80.5838 1.56C80.3278 1.56 80.1358 1.492 80.0078 1.356C79.8878 1.22 79.8278 1.048 79.8278 0.84C79.8278 0.632 79.8878 0.46 80.0078 0.323999C80.1358 0.188 80.3278 0.12 80.5838 0.12C80.8398 0.12 81.0278 0.188 81.1478 0.323999C81.2758 0.46 81.3398 0.632 81.3398 0.84C81.3398 1.048 81.2758 1.22 81.1478 1.356C81.0278 1.492 80.8398 1.56 80.5838 1.56Z" fill="white"/>
</svg>
